<?xml version="1.0" encoding="UTF-8" standalone="no"?>
<svg
   width="210mm"
   height="297mm"
   viewBox="0 0 210 297"
   version="1.1"
   id="svg8"
   inkscape:version="1.2.1 (9c6d41e410, 2022-07-14)"
   sodipodi:docname="logos_mod.svg"
   xmlns:inkscape="http://www.inkscape.org/namespaces/inkscape"
   xmlns:sodipodi="http://sodipodi.sourceforge.net/DTD/sodipodi-0.dtd"
   xmlns="http://www.w3.org/2000/svg"
   xmlns:svg="http://www.w3.org/2000/svg"
   xmlns:rdf="http://www.w3.org/1999/02/22-rdf-syntax-ns#"
   xmlns:cc="http://creativecommons.org/ns#"
   xmlns:dc="http://purl.org/dc/elements/1.1/">
  <defs
     id="defs2">
    <rect
       x="57.505342"
       y="31.932053"
       width="83.631567"
       height="56.952406"
       id="rect857" />
  </defs>
  <sodipodi:namedview
     id="base"
     pagecolor="#ffffff"
     bordercolor="#666666"
     borderopacity="1.0"
     inkscape:pageopacity="0.0"
     inkscape:pageshadow="2"
     inkscape:zoom="0.67671005"
     inkscape:cx="465.4874"
     inkscape:cy="595.52832"
     inkscape:document-units="mm"
     inkscape:current-layer="layer1"
     inkscape:document-rotation="0"
     showgrid="false"
     inkscape:window-width="2560"
     inkscape:window-height="1334"
     inkscape:window-x="-11"
     inkscape:window-y="-11"
     inkscape:window-maximized="1"
     inkscape:pagecheckerboard="0"
     inkscape:showpageshadow="0"
     inkscape:deskcolor="#d1d1d1" />
  <metadata
     id="metadata5">
    <rdf:RDF>
      <cc:Work
         rdf:about="">
        <dc:format>image/svg+xml</dc:format>
        <dc:type
           rdf:resource="http://purl.org/dc/dcmitype/StillImage" />
        <dc:title />
      </cc:Work>
    </rdf:RDF>
  </metadata>
  <g
     inkscape:label="Layer 1"
     inkscape:groupmode="layer"
     id="layer1">
    <text
       xml:space="preserve"
       style="font-style:normal;font-weight:normal;font-size:10.5833px;line-height:1.25;font-family:sans-serif;fill:#000000;fill-opacity:1;stroke:none;stroke-width:0.264583"
       x="123.58119"
       y="51.561279"
       id="text841"><tspan
         sodipodi:role="line"
         id="tspan839"
         x="123.58119"
         y="51.561279"
         style="stroke-width:0.264583" /></text>
    <text
       xml:space="preserve"
       style="font-size:50.8px;line-height:1.25;font-family:'Eras Demi ITC';-inkscape-font-specification:'Eras Demi ITC, Normal';stroke-width:0.264583"
       x="192.42172"
       y="68.84053"
       id="text853"><tspan
         sodipodi:role="line"
         id="tspan851"
         x="192.42172"
         y="68.84053"
         style="stroke-width:0.264583" /></text>
    <text
       xml:space="preserve"
       id="text855"
       style="line-height:1.25;font-family:'Eras Demi ITC';font-size:50.8px;-inkscape-font-specification:'Eras Demi ITC, Normal';white-space:pre;shape-inside:url(#rect857)" />
    <text
       xml:space="preserve"
       style="font-size:10.5833px;line-height:1.25;font-family:'Eras Demi ITC';-inkscape-font-specification:'Eras Demi ITC, Normal';stroke-width:0.264583"
       x="175.97188"
       y="106.85488"
       id="text867"><tspan
         sodipodi:role="line"
         id="tspan865"
         x="175.97188"
         y="106.85488"
         style="stroke-width:0.264583" /></text>
    <rect
       style="fill:#012744;fill-opacity:1;fill-rule:evenodd;stroke:#000000;stroke-width:0.410302;paint-order:fill markers stroke"
       id="rect833-7"
       width="194.86887"
       height="177.95842"
       x="6.7287555"
       y="67.469025" />
    <path
       id="rect986-7"
       style="fill:#99221c;fill-rule:evenodd;stroke-width:0.442296;stroke-linejoin:round;paint-order:fill markers stroke;stroke:none;stroke-opacity:1"
       d="m 110.92035,165.77243 10.46353,1.17498 0.8294,9.08119 -10.8091,0.48382 z"
       sodipodi:nodetypes="ccccc"
       inkscape:export-filename="fav_icon.png"
       inkscape:export-xdpi="96"
       inkscape:export-ydpi="96" />
    <g
       aria-label="key to"
       id="text863-7-8"
       style="font-size:11.5207px;line-height:1.25;font-family:'Eras Demi ITC';-inkscape-font-specification:'Eras Demi ITC, Normal';letter-spacing:-0.466589px;stroke-width:0.288018;stroke:none;stroke-opacity:1">
      <path
         d="m 71.926771,174.33455 v -7.33877 h 1.336401 v 4.2973 h 0.04608 l 2.546075,-2.61519 h 1.474649 l -2.200453,2.25805 2.442388,3.39861 h -1.451608 l -1.785709,-2.58064 -1.071425,1.10599 v 1.47465 z"
         style="font-weight:600;font-family:'Source Code Pro';-inkscape-font-specification:'Source Code Pro Semi-Bold';fill:#d9bfa0;stroke:none;stroke-opacity:1"
         id="path80525"
         sodipodi:nodetypes="cccccccccccccc" />
      <path
         d="m 81.137553,174.4728 q -0.64516,0 -1.209674,-0.19585 -0.564514,-0.20738 -0.99078,-0.58756 -0.414745,-0.38018 -0.65668,-0.93318 -0.241935,-0.55299 -0.241935,-1.25575 0,-0.69125 0.241935,-1.23272 0.241935,-0.55299 0.645159,-0.93318 0.414745,-0.3917 0.933177,-0.58755 0.529952,-0.20737 1.105987,-0.20737 0.633639,0 1.117508,0.20737 0.483869,0.19585 0.81797,0.55299 0.3341,0.34562 0.506911,0.84101 0.17281,0.49539 0.17281,1.08295 0,0.19585 -0.02304,0.38018 -0.01152,0.17281 -0.03456,0.28802 h -4.158973 q 0.115207,0.79493 0.633638,1.17511 0.518432,0.38019 1.31336,0.38019 0.449307,0 0.829491,-0.12673 0.380183,-0.12673 0.760366,-0.34562 l 0.449307,0.82949 q -0.449307,0.29953 -1.025342,0.48387 -0.564515,0.18433 -1.186632,0.18433 z m -0.138249,-4.90782 q -0.587555,0 -1.036863,0.34562 -0.437786,0.34562 -0.564514,1.03686 h 3.006903 q -0.06912,-0.69124 -0.437787,-1.03686 -0.357142,-0.34562 -0.967739,-0.34562 z"
         style="font-weight:600;font-family:'Source Code Pro';-inkscape-font-specification:'Source Code Pro Semi-Bold';fill:#d9bfa0;stroke:none;stroke-opacity:1"
         id="path80527" />
      <path
         d="m 85.359871,176.66173 q -0.230414,0 -0.437787,-0.0346 -0.207372,-0.023 -0.368662,-0.0807 l 0.253455,-1.03686 q 0.115207,0.0346 0.230414,0.0576 0.115208,0.023 0.241935,0.023 0.541473,0 0.864053,-0.2765 0.322579,-0.26498 0.49539,-0.69124 l 0.138248,-0.35715 -2.534554,-5.58753 h 1.324881 l 1.16359,2.77648 q 0.16129,0.38019 0.311059,0.80645 0.149769,0.42627 0.311059,0.85253 h 0.04608 q 0.126728,-0.40322 0.276497,-0.82949 0.149769,-0.42626 0.288017,-0.82949 l 1.025343,-2.77648 h 1.255756 l -2.361743,5.91011 q -0.184332,0.48387 -0.414746,0.86406 -0.218893,0.38018 -0.518431,0.64516 -0.299538,0.27649 -0.691242,0.41474 -0.391704,0.14977 -0.898615,0.14977 z"
         style="font-weight:600;font-family:'Source Code Pro';-inkscape-font-specification:'Source Code Pro Semi-Bold';fill:#d9bfa0;stroke:none;stroke-opacity:1"
         id="path80529" />
      <path
         d="m 98.49767,174.4728 q -0.645159,0 -1.094466,-0.17281 -0.437787,-0.17281 -0.714284,-0.48387 -0.264976,-0.32258 -0.391704,-0.77189 -0.115207,-0.44931 -0.115207,-0.99078 v -2.32718 h -1.509211 v -0.99078 l 1.566815,-0.0576 0.17281,-1.77419 h 1.094467 v 1.77419 h 2.58064 v 1.04838 h -2.58064 v 2.32718 q 0,0.70276 0.288017,1.03686 0.299539,0.32258 1.025343,0.32258 0.357142,0 0.65668,-0.0576 0.299538,-0.0691 0.57603,-0.17281 l 0.25346,0.96774 q -0.380183,0.12673 -0.81797,0.21889 -0.437786,0.10369 -0.99078,0.10369 z"
         style="font-weight:600;font-family:'Source Code Pro';-inkscape-font-specification:'Source Code Pro Semi-Bold';fill:#d9bfa0;stroke:none;stroke-opacity:1"
         id="path80531" />
      <path
         d="m 103.8951,174.4728 q -0.55299,0 -1.07142,-0.19585 -0.51844,-0.19586 -0.91014,-0.57604 -0.3917,-0.38018 -0.63364,-0.93318 -0.23041,-0.55299 -0.23041,-1.25575 0,-0.70277 0.23041,-1.25576 0.24194,-0.55299 0.63364,-0.93318 0.3917,-0.38018 0.91014,-0.57603 0.51843,-0.20737 1.07142,-0.20737 0.55299,0 1.07143,0.20737 0.51843,0.19585 0.91013,0.57603 0.3917,0.38019 0.62212,0.93318 0.24193,0.55299 0.24193,1.25576 0,0.70276 -0.24193,1.25575 -0.23042,0.553 -0.62212,0.93318 -0.3917,0.38018 -0.91013,0.57604 -0.51844,0.19585 -1.07143,0.19585 z m 0,-1.08295 q 0.69124,0 1.08295,-0.50691 0.3917,-0.51843 0.3917,-1.37096 0,-0.86406 -0.3917,-1.37097 -0.39171,-0.51843 -1.08295,-0.51843 -0.69124,0 -1.08295,0.51843 -0.3917,0.50691 -0.3917,1.37097 0,0.85253 0.3917,1.37096 0.39171,0.50691 1.08295,0.50691 z"
         style="font-weight:600;font-family:'Source Code Pro';-inkscape-font-specification:'Source Code Pro Semi-Bold';fill:#d9bfa0;stroke:none;stroke-opacity:1"
         id="path80533" />
    </g>
    <g
       aria-label="2"
       id="text845-1-9"
       style="font-size:50.0944px;line-height:1.25;font-family:'Eras Demi ITC';-inkscape-font-specification:'Eras Demi ITC, Normal';fill:#99221c;stroke-width:0.264583;stroke:none;stroke-opacity:1"
       transform="translate(-0.65031411,-4.4133909)">
      <path
         d="m 90.986158,157.62853 c 0,0 3.424422,-3.53857 5.185553,-5.47908 1.761131,-1.95681 3.090134,-3.53042 3.987009,-4.72081 0.7338,-0.9621 1.223,-1.6796 1.46761,-2.15249 0.2446,-0.48921 0.40767,-0.89688 0.4892,-1.22301 0.0815,-0.34244 0.1223,-0.68488 0.1223,-1.02732 0,-0.89687 -0.26906,-1.62253 -0.80718,-2.17696 -0.53813,-0.57073 -1.28009,-1.01102 -2.22588,-1.32085 -0.929485,-0.32613 -3.2532,-0.4892 -3.2532,-0.4892 l 2.886298,-5.03879 c 0,0 3.106442,0.15491 4.574052,0.46474 1.46761,0.29352 2.77215,0.80718 3.91362,1.54099 1.15778,0.7175 1.99758,1.5573 2.5194,2.5194 0.53812,0.94579 0.80718,1.94051 0.80718,2.98414 0,0.61965 -0.0652,1.23931 -0.19568,1.85897 -0.11415,0.60335 -0.28537,1.15778 -0.51366,1.66329 -0.44028,1.01102 -1.00286,2.03019 -1.68775,3.05752 -0.66858,1.02733 -1.72852,2.39709 -3.17982,4.1093 -1.43499,1.71221 -3.0086,3.46519 -4.72081,5.25894 -1.695905,1.79374 -2.31679,2.45534 -4.452931,4.28184 h 1.101793 l 5.454618,-0.0245 c 1.81005,0 3.13905,-0.0163 3.98701,-0.0489 0.84794,-0.0489 1.86712,-0.13046 3.05752,-0.2446 -0.0326,0.50552 -0.18742,2.53439 -0.26897,3.34972 -0.0653,0.79903 -0.1468,1.86713 -0.24461,3.20428 -3.70163,-0.0326 -11.545191,-0.0489 -11.545191,-0.0489 z"
         id="path61581-3"
         sodipodi:nodetypes="cccccscccccccscccccccccccccc"
         style="stroke:none;stroke-opacity:1" />
    </g>
    <g
       aria-label="K"
       id="text837-6-9"
       style="font-size:10.5833px;line-height:1.25;fill:#f2dbae;stroke-width:0.465;stroke:none;stroke-opacity:1"
       transform="translate(-0.65031411,-4.4133909)">
      <path
         d="m 72.616277,167.85841 c 0.733073,-10.05466 1.607007,-30.26431 1.607007,-30.26431 0,0 3.137623,-0.75562 7.572304,-1.57118 l -0.54728,11.37163 -0.669727,16.04863 -0.07441,4.41523 -3.844726,-0.0496 c -0.463021,0 -4.043164,0.0496 -4.043164,0.0496 z m 9.004101,-17.90898 5.630664,-6.92051 5.13457,-6.52363 c 0.363802,-0.47956 0.890303,-1.12353 1.750199,-2.31415 0,0 2.056144,-0.15904 4.428009,-0.19039 2.14067,-0.0283 4.12224,0.32461 4.12224,0.32461 l -11.143807,13.09399 -1.934766,2.40606 1.562695,2.23242 c 0.231511,0.31419 1.86862,2.46393 4.911329,6.44922 l 7.218159,9.35136 -4.41523,-0.0496 c -0.777213,0 -2.389518,0.0165 -4.836914,0.0496 l -1.5875,-2.48047 c -0.297656,-0.47955 -0.826823,-1.26503 -1.5875,-2.35644 l -6.746875,-9.62422 z"
         style="font-size:50.8px;font-family:'Eras Demi ITC';-inkscape-font-specification:'Eras Demi ITC, Normal';fill:#d9bfa0;stroke-linejoin:round;stroke:none;stroke-opacity:1"
         id="path61578-0"
         sodipodi:nodetypes="cccccccccccccscccccccccccc" />
    </g>
    <path
       d="m 111.98624,130.27101 c 0,0 1.80712,0.0422 5.03331,0.20019 3.22621,0.15803 5.46933,0.45876 5.46933,0.45876 0,0 -0.005,0.91724 -0.002,1.14393 0.004,0.30397 0.0128,0.67487 0.0283,1.11267 l -2.8229,-0.15292 -6.2938,-0.19792 -1.43778,-0.0143 c 0.004,-0.86151 0.002,-1.67505 0.0258,-2.5504 z"
       style="font-size:15.8282px;line-height:1.25;font-family:'Eras Demi ITC';-inkscape-font-specification:'Eras Demi ITC, Normal';letter-spacing:1.54325px;fill:#d9bfa0;stroke-width:0.258068;stroke:none;stroke-opacity:1"
       id="path73277"
       sodipodi:nodetypes="czcsccccc" />
    <path
       d="m 118.14982,136.83782 q 0.55767,0.10177 0.78205,0.12236 0.22447,0.0283 0.68123,0.0926 0.25942,1.04817 0.36916,1.85072 0.10975,0.80257 0.1184,1.55219 0.01,0.85009 -0.18293,1.56339 -0.18499,0.71323 -0.61314,1.12007 -0.42813,0.40686 -1.23958,0.41622 -0.4405,0.005 -2.25031,-0.0977 -1.80207,-0.10287 -3.72663,-0.10386 0.009,-0.58751 0.003,-1.0821 -0.005,-0.47142 -0.0282,-1.10495 0.93626,0.0897 2.16574,0.13732 l 1.92546,0.0783 q -0.19659,-0.29144 -0.27566,-0.44511 -0.0791,-0.15367 -0.15084,-0.34607 -0.064,-0.19249 -0.20878,-0.67775 -0.13699,-0.48536 -0.24085,-0.77787 -0.10385,-0.29251 -0.23799,-0.53056 -0.12633,-0.23042 -0.29049,-0.39083 -0.15643,-0.16051 -0.33507,-0.23574 -0.17082,-0.0676 -0.37175,-0.0653 -0.32458,0.004 -0.56201,0.19199 -0.22962,0.19588 -0.31905,0.48288 -0.0894,0.28701 -0.0849,0.67342 0.003,0.2473 0.0446,0.51734 0.0418,0.27776 0.20176,0.73967 -0.44238,-0.15721 -1.31814,-0.36352 -0.099,-0.54763 -0.126,-0.87194 -0.0269,-0.32431 -0.0301,-0.60252 -0.0112,-0.97375 0.2443,-1.60275 0.25553,-0.62901 0.82394,-0.93701 0.56848,-0.30026 1.14809,-0.30694 0.33231,-0.004 0.65822,0.10834 0.32592,0.11217 0.59899,0.33316 0.27308,0.221 0.52447,0.57364 0.25914,0.35255 0.49873,1.02222 0.24733,0.66958 0.49965,1.77194 0.0652,0.29294 0.15388,0.60882 0.0964,0.31578 0.18354,0.50028 0.0872,0.19221 0.22022,0.32981 0.14072,0.13749 0.28826,0.19763 0.14763,0.0679 0.3022,0.0661 0.30139,-0.003 0.50773,-0.20681 0.20644,-0.19561 0.28006,-0.51335 0.0814,-0.31011 0.0771,-0.68879 -0.0162,-1.40651 -0.70819,-3.09893 z"
       style="font-size:15.8282px;line-height:1.25;font-family:'Eras Demi ITC';-inkscape-font-specification:'Eras Demi ITC, Normal';letter-spacing:1.54325px;fill:#d9bfa0;stroke-width:0.258068;stroke:none;stroke-opacity:1"
       id="path73279" />
    <path
       d="m 112.12116,146.75146 q 1.46995,0.12217 5.10402,0.24255 3.6419,0.12803 5.45037,0.11489 -0.008,0.68797 -0.002,1.1903 0.006,0.50233 0.0279,1.07403 -1.09118,-0.1188 -2.75361,-0.17691 0.15557,0.75565 0.20712,1.20335 0.0593,0.4476 0.0644,0.8881 0.014,1.21332 -0.36288,2.04469 -0.36904,0.839 -1.25198,1.35158 -0.8752,0.51249 -2.13488,0.52703 -0.88101,0.0102 -1.71859,-0.23524 -0.82976,-0.23776 -1.48471,-0.73259 -0.64714,-0.4872 -0.95674,-1.19471 -0.3096,-0.70751 -0.31923,-1.54214 -0.005,-0.40187 0.0686,-0.75052 0.0657,-0.34084 0.20134,-0.63611 0.13581,-0.28755 0.31861,-0.52153 0.18289,-0.22626 0.36658,-0.38296 0.18378,-0.14897 0.51377,-0.35374 l -1.31413,-0.0157 q 0.008,-0.63388 0.004,-0.9971 -0.003,-0.27821 -0.0282,-1.09722 z m 6.24867,2.31622 -1.32221,-0.0465 q -0.42531,-0.0183 -0.82718,-0.0137 -0.95828,0.0111 -1.51248,0.21068 -0.54637,0.20726 -0.84233,0.68216 -0.29595,0.47488 -0.28918,1.06222 0.007,0.64143 0.35288,1.10893 0.3532,0.46739 1.02066,0.70703 0.66756,0.24735 1.40173,0.23888 1.05875,-0.0122 1.69368,-0.58377 0.63492,-0.57155 0.62226,-1.66894 -0.004,-0.35549 -0.0704,-0.74118 -0.0586,-0.38578 -0.22744,-0.95578 z"
       style="font-size:15.8282px;line-height:1.25;font-family:'Eras Demi ITC';-inkscape-font-specification:'Eras Demi ITC, Normal';letter-spacing:1.54325px;fill:#d9bfa0;stroke-width:0.258068;stroke:none;stroke-opacity:1"
       id="path73281" />
    <path
       d="m 112.29915,158.01989 1.69822,-0.18964 q -0.30039,0.76092 -0.41797,1.28786 -0.10986,0.52684 -0.10477,0.96734 0.005,0.4405 0.10902,0.74074 0.11167,0.30015 0.31429,0.44467 0.21036,0.14442 0.43446,0.14183 0.10048,-0.001 0.18521,-0.0253 0.0848,-0.0165 0.17695,-0.0716 0.0922,-0.0475 0.16868,-0.11789 0.0843,-0.0628 0.18343,-0.17988 0.10685,-0.11717 0.26665,-0.33543 l 0.32749,-0.42115 q 0.46445,-0.60823 0.73128,-0.92821 0.26684,-0.31997 0.54255,-0.53956 0.28344,-0.21969 0.59123,-0.33918 0.3156,-0.11184 0.64018,-0.11559 0.56415,-0.007 1.07813,0.32764 0.51407,0.34188 0.75349,0.9961 0.24715,0.65412 0.25741,1.54285 0.0117,1.01238 -0.21265,2.33665 l -1.61401,0.1191 q 0.35287,-0.90065 0.34333,-1.72756 -0.005,-0.44823 -0.10179,-0.7872 -0.0888,-0.33132 -0.27601,-0.47601 -0.17944,-0.14479 -0.40356,-0.14221 -0.13138,0.002 -0.26221,0.0494 -0.12312,0.0478 -0.2609,0.16532 -0.13776,0.11753 -0.25972,0.26579 -0.12186,0.15598 -0.47955,0.63932 -0.3577,0.48333 -0.64726,0.84222 -0.28948,0.3666 -0.5882,0.60192 -0.29099,0.23523 -0.6296,0.36281 -0.33861,0.12756 -0.68638,0.13158 -0.5796,0.007 -1.07831,-0.3431 -0.4987,-0.34979 -0.7852,-1.06529 -0.2865,-0.7155 -0.29676,-1.60423 -0.005,-0.46369 0.0643,-1.1292 0.0619,-0.66542 0.23862,-1.42491 z"
       style="font-size:15.8282px;line-height:1.25;font-family:'Eras Demi ITC';-inkscape-font-specification:'Eras Demi ITC, Normal';letter-spacing:1.54325px;fill:#d9bfa0;stroke-width:0.258068;stroke:none;stroke-opacity:1"
       id="path73283" />
    <text
       xml:space="preserve"
       style="font-size:10.5833px;line-height:1.25;font-family:'Eras Demi ITC';-inkscape-font-specification:'Eras Demi ITC, Normal';stroke-width:0.264583;stroke:none;stroke-opacity:1"
       x="112.39458"
       y="174.31409"
       id="text990-36"><tspan
         sodipodi:role="line"
         id="tspan988-35"
         x="112.39458"
         y="174.31409"
         style="fill:#d9bfa0;fill-opacity:1;stroke-width:0.264583;stroke:none;stroke-opacity:1">...</tspan></text>
    <rect
       style="fill:#000000;fill-opacity:1;fill-rule:evenodd;stroke:#000000;stroke-width:0.410302;paint-order:fill markers stroke"
       id="rect833-7-1"
       width="194.86887"
       height="177.95842"
       x="219.65424"
       y="69.369629" />
    <path
       id="rect986-7-0"
       style="fill:#ffffff;fill-opacity:1;fill-rule:evenodd;stroke:none;stroke-width:0.442296;stroke-linejoin:round;stroke-opacity:1;paint-order:fill markers stroke"
       d="m 322.57512,162.05263 10.46353,1.17498 0.8294,9.08119 -10.8091,0.48382 z"
       sodipodi:nodetypes="ccccc" />
    <g
       aria-label="key to"
       id="text863-7-8-0"
       style="font-size:11.5207px;line-height:1.25;font-family:'Eras Demi ITC';-inkscape-font-specification:'Eras Demi ITC, Normal';letter-spacing:-0.466589px;fill:#ffffff;fill-opacity:1;stroke:none;stroke-width:0.288018;stroke-opacity:1"
       transform="translate(211.65477,-3.719804)">
      <path
         d="m 71.926771,174.33455 v -7.33877 h 1.336401 v 4.2973 h 0.04608 l 2.546075,-2.61519 h 1.474649 l -2.200453,2.25805 2.442388,3.39861 h -1.451608 l -1.785709,-2.58064 -1.071425,1.10599 v 1.47465 z"
         style="font-weight:600;font-family:'Source Code Pro';-inkscape-font-specification:'Source Code Pro Semi-Bold';fill:#ffffff;fill-opacity:1;stroke:none;stroke-opacity:1"
         id="path80525-7"
         sodipodi:nodetypes="cccccccccccccc" />
      <path
         d="m 81.137553,174.4728 q -0.64516,0 -1.209674,-0.19585 -0.564514,-0.20738 -0.99078,-0.58756 -0.414745,-0.38018 -0.65668,-0.93318 -0.241935,-0.55299 -0.241935,-1.25575 0,-0.69125 0.241935,-1.23272 0.241935,-0.55299 0.645159,-0.93318 0.414745,-0.3917 0.933177,-0.58755 0.529952,-0.20737 1.105987,-0.20737 0.633639,0 1.117508,0.20737 0.483869,0.19585 0.81797,0.55299 0.3341,0.34562 0.506911,0.84101 0.17281,0.49539 0.17281,1.08295 0,0.19585 -0.02304,0.38018 -0.01152,0.17281 -0.03456,0.28802 h -4.158973 q 0.115207,0.79493 0.633638,1.17511 0.518432,0.38019 1.31336,0.38019 0.449307,0 0.829491,-0.12673 0.380183,-0.12673 0.760366,-0.34562 l 0.449307,0.82949 q -0.449307,0.29953 -1.025342,0.48387 -0.564515,0.18433 -1.186632,0.18433 z m -0.138249,-4.90782 q -0.587555,0 -1.036863,0.34562 -0.437786,0.34562 -0.564514,1.03686 h 3.006903 q -0.06912,-0.69124 -0.437787,-1.03686 -0.357142,-0.34562 -0.967739,-0.34562 z"
         style="font-weight:600;font-family:'Source Code Pro';-inkscape-font-specification:'Source Code Pro Semi-Bold';fill:#ffffff;fill-opacity:1;stroke:none;stroke-opacity:1"
         id="path80527-8" />
      <path
         d="m 85.359871,176.66173 q -0.230414,0 -0.437787,-0.0346 -0.207372,-0.023 -0.368662,-0.0807 l 0.253455,-1.03686 q 0.115207,0.0346 0.230414,0.0576 0.115208,0.023 0.241935,0.023 0.541473,0 0.864053,-0.2765 0.322579,-0.26498 0.49539,-0.69124 l 0.138248,-0.35715 -2.534554,-5.58753 h 1.324881 l 1.16359,2.77648 q 0.16129,0.38019 0.311059,0.80645 0.149769,0.42627 0.311059,0.85253 h 0.04608 q 0.126728,-0.40322 0.276497,-0.82949 0.149769,-0.42626 0.288017,-0.82949 l 1.025343,-2.77648 h 1.255756 l -2.361743,5.91011 q -0.184332,0.48387 -0.414746,0.86406 -0.218893,0.38018 -0.518431,0.64516 -0.299538,0.27649 -0.691242,0.41474 -0.391704,0.14977 -0.898615,0.14977 z"
         style="font-weight:600;font-family:'Source Code Pro';-inkscape-font-specification:'Source Code Pro Semi-Bold';fill:#ffffff;fill-opacity:1;stroke:none;stroke-opacity:1"
         id="path80529-4" />
      <path
         d="m 98.49767,174.4728 q -0.645159,0 -1.094466,-0.17281 -0.437787,-0.17281 -0.714284,-0.48387 -0.264976,-0.32258 -0.391704,-0.77189 -0.115207,-0.44931 -0.115207,-0.99078 v -2.32718 h -1.509211 v -0.99078 l 1.566815,-0.0576 0.17281,-1.77419 h 1.094467 v 1.77419 h 2.58064 v 1.04838 h -2.58064 v 2.32718 q 0,0.70276 0.288017,1.03686 0.299539,0.32258 1.025343,0.32258 0.357142,0 0.65668,-0.0576 0.299538,-0.0691 0.57603,-0.17281 l 0.25346,0.96774 q -0.380183,0.12673 -0.81797,0.21889 -0.437786,0.10369 -0.99078,0.10369 z"
         style="font-weight:600;font-family:'Source Code Pro';-inkscape-font-specification:'Source Code Pro Semi-Bold';fill:#ffffff;fill-opacity:1;stroke:none;stroke-opacity:1"
         id="path80531-9" />
      <path
         d="m 103.8951,174.4728 q -0.55299,0 -1.07142,-0.19585 -0.51844,-0.19586 -0.91014,-0.57604 -0.3917,-0.38018 -0.63364,-0.93318 -0.23041,-0.55299 -0.23041,-1.25575 0,-0.70277 0.23041,-1.25576 0.24194,-0.55299 0.63364,-0.93318 0.3917,-0.38018 0.91014,-0.57603 0.51843,-0.20737 1.07142,-0.20737 0.55299,0 1.07143,0.20737 0.51843,0.19585 0.91013,0.57603 0.3917,0.38019 0.62212,0.93318 0.24193,0.55299 0.24193,1.25576 0,0.70276 -0.24193,1.25575 -0.23042,0.553 -0.62212,0.93318 -0.3917,0.38018 -0.91013,0.57604 -0.51844,0.19585 -1.07143,0.19585 z m 0,-1.08295 q 0.69124,0 1.08295,-0.50691 0.3917,-0.51843 0.3917,-1.37096 0,-0.86406 -0.3917,-1.37097 -0.39171,-0.51843 -1.08295,-0.51843 -0.69124,0 -1.08295,0.51843 -0.3917,0.50691 -0.3917,1.37097 0,0.85253 0.3917,1.37096 0.39171,0.50691 1.08295,0.50691 z"
         style="font-weight:600;font-family:'Source Code Pro';-inkscape-font-specification:'Source Code Pro Semi-Bold';fill:#ffffff;fill-opacity:1;stroke:none;stroke-opacity:1"
         id="path80533-1" />
    </g>
    <g
       aria-label="2"
       id="text845-1-9-9"
       style="font-size:50.0944px;line-height:1.25;font-family:'Eras Demi ITC';-inkscape-font-specification:'Eras Demi ITC, Normal';fill:#ffffff;fill-opacity:1;stroke:none;stroke-width:0.264583;stroke-opacity:1"
       transform="translate(211.00446,-8.133195)">
      <path
         d="m 90.986158,157.62853 c 0,0 3.424422,-3.53857 5.185553,-5.47908 1.761131,-1.95681 3.090134,-3.53042 3.987009,-4.72081 0.7338,-0.9621 1.223,-1.6796 1.46761,-2.15249 0.2446,-0.48921 0.40767,-0.89688 0.4892,-1.22301 0.0815,-0.34244 0.1223,-0.68488 0.1223,-1.02732 0,-0.89687 -0.26906,-1.62253 -0.80718,-2.17696 -0.53813,-0.57073 -1.28009,-1.01102 -2.22588,-1.32085 -0.929485,-0.32613 -3.2532,-0.4892 -3.2532,-0.4892 l 2.886298,-5.03879 c 0,0 3.106442,0.15491 4.574052,0.46474 1.46761,0.29352 2.77215,0.80718 3.91362,1.54099 1.15778,0.7175 1.99758,1.5573 2.5194,2.5194 0.53812,0.94579 0.80718,1.94051 0.80718,2.98414 0,0.61965 -0.0652,1.23931 -0.19568,1.85897 -0.11415,0.60335 -0.28537,1.15778 -0.51366,1.66329 -0.44028,1.01102 -1.00286,2.03019 -1.68775,3.05752 -0.66858,1.02733 -1.72852,2.39709 -3.17982,4.1093 -1.43499,1.71221 -3.0086,3.46519 -4.72081,5.25894 -1.695905,1.79374 -2.31679,2.45534 -4.452931,4.28184 h 1.101793 l 5.454618,-0.0245 c 1.81005,0 3.13905,-0.0163 3.98701,-0.0489 0.84794,-0.0489 1.86712,-0.13046 3.05752,-0.2446 -0.0326,0.50552 -0.18742,2.53439 -0.26897,3.34972 -0.0653,0.79903 -0.1468,1.86713 -0.24461,3.20428 -3.70163,-0.0326 -11.545191,-0.0489 -11.545191,-0.0489 z"
         id="path61581-3-4"
         sodipodi:nodetypes="cccccscccccccscccccccccccccc"
         style="fill:#ffffff;fill-opacity:1;stroke:none;stroke-opacity:1" />
    </g>
    <g
       aria-label="K"
       id="text837-6-9-4"
       style="font-size:10.5833px;line-height:1.25;fill:#ffffff;fill-opacity:1;stroke:none;stroke-width:0.465;stroke-opacity:1"
       transform="translate(211.00446,-8.133195)">
      <path
         d="m 72.616277,167.85841 c 0.733073,-10.05466 1.607007,-30.26431 1.607007,-30.26431 0,0 3.137623,-0.75562 7.572304,-1.57118 l -0.54728,11.37163 -0.669727,16.04863 -0.07441,4.41523 -3.844726,-0.0496 c -0.463021,0 -4.043164,0.0496 -4.043164,0.0496 z m 9.004101,-17.90898 5.630664,-6.92051 5.13457,-6.52363 c 0.363802,-0.47956 0.890303,-1.12353 1.750199,-2.31415 0,0 2.056144,-0.15904 4.428009,-0.19039 2.14067,-0.0283 4.12224,0.32461 4.12224,0.32461 l -11.143807,13.09399 -1.934766,2.40606 1.562695,2.23242 c 0.231511,0.31419 1.86862,2.46393 4.911329,6.44922 l 7.218159,9.35136 -4.41523,-0.0496 c -0.777213,0 -2.389518,0.0165 -4.836914,0.0496 l -1.5875,-2.48047 c -0.297656,-0.47955 -0.826823,-1.26503 -1.5875,-2.35644 l -6.746875,-9.62422 z"
         style="font-size:50.8px;font-family:'Eras Demi ITC';-inkscape-font-specification:'Eras Demi ITC, Normal';fill:#ffffff;fill-opacity:1;stroke:none;stroke-linejoin:round;stroke-opacity:1"
         id="path61578-0-1"
         sodipodi:nodetypes="cccccccccccccscccccccccccc" />
    </g>
    <path
       d="m 323.64101,126.5512 c 0,0 1.80712,0.0422 5.03331,0.20019 3.22621,0.15803 5.46933,0.45876 5.46933,0.45876 0,0 -0.005,0.91724 -0.002,1.14394 0.004,0.30397 0.0128,0.67487 0.0283,1.11267 l -2.8229,-0.15292 -6.2938,-0.19792 -1.43778,-0.0143 c 0.004,-0.86151 0.002,-1.67505 0.0258,-2.5504 z"
       style="font-size:15.8282px;line-height:1.25;font-family:'Eras Demi ITC';-inkscape-font-specification:'Eras Demi ITC, Normal';letter-spacing:1.54325px;fill:#ffffff;fill-opacity:1;stroke:none;stroke-width:0.258068;stroke-opacity:1"
       id="path73277-6"
       sodipodi:nodetypes="czcsccccc" />
    <path
       d="m 329.80459,133.11801 q 0.55767,0.10177 0.78205,0.12236 0.22447,0.0283 0.68123,0.0926 0.25942,1.04817 0.36916,1.85072 0.10975,0.80257 0.1184,1.55219 0.01,0.85009 -0.18293,1.56339 -0.18499,0.71323 -0.61314,1.12007 -0.42813,0.40686 -1.23958,0.41622 -0.4405,0.005 -2.25031,-0.0977 -1.80207,-0.10287 -3.72663,-0.10386 0.009,-0.58751 0.003,-1.0821 -0.005,-0.47142 -0.0282,-1.10495 0.93626,0.0897 2.16574,0.13732 l 1.92546,0.0783 q -0.19659,-0.29144 -0.27566,-0.44511 -0.0791,-0.15367 -0.15084,-0.34607 -0.064,-0.19249 -0.20878,-0.67775 -0.13699,-0.48535 -0.24085,-0.77787 -0.10385,-0.29251 -0.23799,-0.53056 -0.12633,-0.23042 -0.29049,-0.39083 -0.15643,-0.16051 -0.33507,-0.23574 -0.17082,-0.0676 -0.37175,-0.0653 -0.32458,0.004 -0.56201,0.19199 -0.22962,0.19588 -0.31905,0.48288 -0.0894,0.28701 -0.0849,0.67342 0.003,0.2473 0.0446,0.51734 0.0418,0.27776 0.20176,0.73967 -0.44238,-0.15721 -1.31814,-0.36352 -0.099,-0.54763 -0.126,-0.87194 -0.0269,-0.32431 -0.0301,-0.60252 -0.0112,-0.97375 0.2443,-1.60275 0.25553,-0.62901 0.82394,-0.93701 0.56848,-0.30026 1.14809,-0.30694 0.33231,-0.004 0.65822,0.10834 0.32592,0.11217 0.59899,0.33316 0.27308,0.221 0.52447,0.57364 0.25914,0.35256 0.49873,1.02222 0.24733,0.66958 0.49965,1.77194 0.0652,0.29294 0.15388,0.60883 0.0964,0.31577 0.18354,0.50028 0.0872,0.1922 0.22022,0.32981 0.14072,0.13749 0.28826,0.19763 0.14763,0.0679 0.3022,0.0661 0.30139,-0.003 0.50773,-0.20681 0.20644,-0.19561 0.28006,-0.51335 0.0814,-0.31011 0.0771,-0.68879 -0.0162,-1.40651 -0.70819,-3.09893 z"
       style="font-size:15.8282px;line-height:1.25;font-family:'Eras Demi ITC';-inkscape-font-specification:'Eras Demi ITC, Normal';letter-spacing:1.54325px;fill:#ffffff;fill-opacity:1;stroke:none;stroke-width:0.258068;stroke-opacity:1"
       id="path73279-3" />
    <path
       d="m 323.77593,143.03166 q 1.46995,0.12217 5.10402,0.24255 3.6419,0.12803 5.45037,0.11489 -0.008,0.68797 -0.002,1.1903 0.006,0.50233 0.0279,1.07403 -1.09118,-0.1188 -2.75361,-0.17691 0.15557,0.75565 0.20712,1.20335 0.0593,0.4476 0.0644,0.8881 0.014,1.21332 -0.36288,2.04469 -0.36904,0.839 -1.25198,1.35158 -0.8752,0.51249 -2.13488,0.52703 -0.88101,0.0102 -1.71859,-0.23524 -0.82976,-0.23776 -1.48471,-0.73259 -0.64714,-0.4872 -0.95674,-1.19471 -0.3096,-0.70751 -0.31923,-1.54214 -0.005,-0.40187 0.0686,-0.75052 0.0657,-0.34084 0.20134,-0.63611 0.13581,-0.28755 0.31861,-0.52153 0.18289,-0.22626 0.36658,-0.38296 0.18378,-0.14897 0.51377,-0.35374 l -1.31413,-0.0157 q 0.008,-0.63388 0.004,-0.9971 -0.003,-0.27821 -0.0282,-1.09722 z m 6.24867,2.31621 -1.32221,-0.0465 q -0.42531,-0.0183 -0.82718,-0.0137 -0.95828,0.0111 -1.51248,0.21068 -0.54637,0.20726 -0.84233,0.68216 -0.29595,0.47489 -0.28918,1.06222 0.007,0.64144 0.35288,1.10893 0.3532,0.46739 1.02066,0.70703 0.66756,0.24735 1.40173,0.23888 1.05875,-0.0122 1.69368,-0.58377 0.63492,-0.57155 0.62226,-1.66894 -0.004,-0.35549 -0.0704,-0.74118 -0.0586,-0.38578 -0.22744,-0.95578 z"
       style="font-size:15.8282px;line-height:1.25;font-family:'Eras Demi ITC';-inkscape-font-specification:'Eras Demi ITC, Normal';letter-spacing:1.54325px;fill:#ffffff;fill-opacity:1;stroke:none;stroke-width:0.258068;stroke-opacity:1"
       id="path73281-2" />
    <path
       d="m 323.95392,154.30008 1.69822,-0.18964 q -0.30039,0.76092 -0.41797,1.28786 -0.10986,0.52684 -0.10477,0.96734 0.005,0.4405 0.10902,0.74074 0.11167,0.30015 0.31429,0.44467 0.21036,0.14442 0.43446,0.14183 0.10048,-0.001 0.18521,-0.0253 0.0848,-0.0165 0.17695,-0.0716 0.0922,-0.0475 0.16868,-0.11789 0.0843,-0.0628 0.18343,-0.17988 0.10685,-0.11717 0.26665,-0.33543 l 0.32749,-0.42115 q 0.46445,-0.60823 0.73128,-0.92821 0.26684,-0.31998 0.54255,-0.53956 0.28344,-0.2197 0.59123,-0.33918 0.3156,-0.11184 0.64018,-0.11559 0.56415,-0.007 1.07813,0.32764 0.51407,0.34188 0.75349,0.9961 0.24715,0.65412 0.25741,1.54285 0.0117,1.01238 -0.21265,2.33665 l -1.61401,0.1191 q 0.35287,-0.90066 0.34333,-1.72757 -0.005,-0.44822 -0.10179,-0.7872 -0.0888,-0.33132 -0.27601,-0.47601 -0.17944,-0.14479 -0.40356,-0.14221 -0.13138,0.002 -0.26221,0.0494 -0.12312,0.0478 -0.2609,0.16532 -0.13776,0.11753 -0.25972,0.26579 -0.12186,0.15598 -0.47955,0.63932 -0.3577,0.48333 -0.64726,0.84222 -0.28948,0.3666 -0.5882,0.60192 -0.29099,0.23523 -0.6296,0.36281 -0.33861,0.12756 -0.68638,0.13158 -0.5796,0.007 -1.07831,-0.34309 -0.4987,-0.3498 -0.7852,-1.06529 -0.2865,-0.7155 -0.29676,-1.60423 -0.005,-0.4637 0.0643,-1.1292 0.0619,-0.66543 0.23862,-1.42492 z"
       style="font-size:15.8282px;line-height:1.25;font-family:'Eras Demi ITC';-inkscape-font-specification:'Eras Demi ITC, Normal';letter-spacing:1.54325px;fill:#ffffff;fill-opacity:1;stroke:none;stroke-width:0.258068;stroke-opacity:1"
       id="path73283-5" />
    <text
       xml:space="preserve"
       style="font-size:10.5833px;line-height:1.25;font-family:'Eras Demi ITC';-inkscape-font-specification:'Eras Demi ITC, Normal';fill:#000000;fill-opacity:1;stroke:none;stroke-width:0.264583;stroke-opacity:1"
       x="324.04935"
       y="170.59428"
       id="text990-36-5"><tspan
         sodipodi:role="line"
         id="tspan988-35-8"
         x="324.04935"
         y="170.59428"
         style="fill:#000000;fill-opacity:1;stroke:none;stroke-width:0.264583;stroke-opacity:1">...</tspan></text>
    <path
       style="fill:#000000;fill-opacity:1;stroke:none;stroke-width:0.264583px;stroke-linecap:butt;stroke-linejoin:miter;stroke-opacity:1"
       d="m 308.27688,132.48951 6.50013,-7.62419 0.97746,0.58647 -7.18435,8.40617 z"
       id="path1408" />
    <path
       style="fill:#000000;fill-opacity:1;stroke:none;stroke-width:0.264583px;stroke-linecap:butt;stroke-linejoin:miter;stroke-opacity:1"
       d="m 304.16381,144.81077 6.15401,7.90621 -0.77184,0.83885 -6.78165,-8.73429 z"
       id="path1408-4" />
    <path
       style="fill:#000000;fill-opacity:1;stroke:none;stroke-width:0.264583px;stroke-linecap:butt;stroke-linejoin:miter;stroke-opacity:1"
       d="m 310.31782,152.71698 6.15402,7.9062 -0.77184,0.83886 -6.78165,-8.7343 z"
       id="path1408-4-8" />
    <path
       id="rect986-7-7"
       style="fill:#99221c;fill-rule:evenodd;stroke:none;stroke-width:0.442296;stroke-linejoin:round;stroke-opacity:1;paint-order:fill markers stroke"
       d="m -41.52262,170.60655 10.46353,1.17498 0.8294,9.08119 -10.8091,0.48382 z"
       sodipodi:nodetypes="ccccc"
       inkscape:export-filename="fav_icon.png"
       inkscape:export-xdpi="96"
       inkscape:export-ydpi="96" />
    <g
       aria-label="key to"
       id="text863-7-8-06"
       style="font-size:11.5207px;line-height:1.25;font-family:'Eras Demi ITC';-inkscape-font-specification:'Eras Demi ITC, Normal';letter-spacing:-0.466589px;stroke:none;stroke-width:0.288018;stroke-opacity:1"
       transform="translate(-152.44297,4.8341162)">
      <path
         d="m 71.926771,174.33455 v -7.33877 h 1.336401 v 4.2973 h 0.04608 l 2.546075,-2.61519 h 1.474649 l -2.200453,2.25805 2.442388,3.39861 h -1.451608 l -1.785709,-2.58064 -1.071425,1.10599 v 1.47465 z"
         style="font-weight:600;font-family:'Source Code Pro';-inkscape-font-specification:'Source Code Pro Semi-Bold';fill:#d9bfa0;stroke:none;stroke-opacity:1"
         id="path80525-1"
         sodipodi:nodetypes="cccccccccccccc" />
      <path
         d="m 81.137553,174.4728 q -0.64516,0 -1.209674,-0.19585 -0.564514,-0.20738 -0.99078,-0.58756 -0.414745,-0.38018 -0.65668,-0.93318 -0.241935,-0.55299 -0.241935,-1.25575 0,-0.69125 0.241935,-1.23272 0.241935,-0.55299 0.645159,-0.93318 0.414745,-0.3917 0.933177,-0.58755 0.529952,-0.20737 1.105987,-0.20737 0.633639,0 1.117508,0.20737 0.483869,0.19585 0.81797,0.55299 0.3341,0.34562 0.506911,0.84101 0.17281,0.49539 0.17281,1.08295 0,0.19585 -0.02304,0.38018 -0.01152,0.17281 -0.03456,0.28802 h -4.158973 q 0.115207,0.79493 0.633638,1.17511 0.518432,0.38019 1.31336,0.38019 0.449307,0 0.829491,-0.12673 0.380183,-0.12673 0.760366,-0.34562 l 0.449307,0.82949 q -0.449307,0.29953 -1.025342,0.48387 -0.564515,0.18433 -1.186632,0.18433 z m -0.138249,-4.90782 q -0.587555,0 -1.036863,0.34562 -0.437786,0.34562 -0.564514,1.03686 h 3.006903 q -0.06912,-0.69124 -0.437787,-1.03686 -0.357142,-0.34562 -0.967739,-0.34562 z"
         style="font-weight:600;font-family:'Source Code Pro';-inkscape-font-specification:'Source Code Pro Semi-Bold';fill:#d9bfa0;stroke:none;stroke-opacity:1"
         id="path80527-9" />
      <path
         d="m 85.359871,176.66173 q -0.230414,0 -0.437787,-0.0346 -0.207372,-0.023 -0.368662,-0.0807 l 0.253455,-1.03686 q 0.115207,0.0346 0.230414,0.0576 0.115208,0.023 0.241935,0.023 0.541473,0 0.864053,-0.2765 0.322579,-0.26498 0.49539,-0.69124 l 0.138248,-0.35715 -2.534554,-5.58753 h 1.324881 l 1.16359,2.77648 q 0.16129,0.38019 0.311059,0.80645 0.149769,0.42627 0.311059,0.85253 h 0.04608 q 0.126728,-0.40322 0.276497,-0.82949 0.149769,-0.42626 0.288017,-0.82949 l 1.025343,-2.77648 h 1.255756 l -2.361743,5.91011 q -0.184332,0.48387 -0.414746,0.86406 -0.218893,0.38018 -0.518431,0.64516 -0.299538,0.27649 -0.691242,0.41474 -0.391704,0.14977 -0.898615,0.14977 z"
         style="font-weight:600;font-family:'Source Code Pro';-inkscape-font-specification:'Source Code Pro Semi-Bold';fill:#d9bfa0;stroke:none;stroke-opacity:1"
         id="path80529-46" />
      <path
         d="m 98.49767,174.4728 q -0.645159,0 -1.094466,-0.17281 -0.437787,-0.17281 -0.714284,-0.48387 -0.264976,-0.32258 -0.391704,-0.77189 -0.115207,-0.44931 -0.115207,-0.99078 v -2.32718 h -1.509211 v -0.99078 l 1.566815,-0.0576 0.17281,-1.77419 h 1.094467 v 1.77419 h 2.58064 v 1.04838 h -2.58064 v 2.32718 q 0,0.70276 0.288017,1.03686 0.299539,0.32258 1.025343,0.32258 0.357142,0 0.65668,-0.0576 0.299538,-0.0691 0.57603,-0.17281 l 0.25346,0.96774 q -0.380183,0.12673 -0.81797,0.21889 -0.437786,0.10369 -0.99078,0.10369 z"
         style="font-weight:600;font-family:'Source Code Pro';-inkscape-font-specification:'Source Code Pro Semi-Bold';fill:#d9bfa0;stroke:none;stroke-opacity:1"
         id="path80531-5" />
      <path
         d="m 103.8951,174.4728 q -0.55299,0 -1.07142,-0.19585 -0.51844,-0.19586 -0.91014,-0.57604 -0.3917,-0.38018 -0.63364,-0.93318 -0.23041,-0.55299 -0.23041,-1.25575 0,-0.70277 0.23041,-1.25576 0.24194,-0.55299 0.63364,-0.93318 0.3917,-0.38018 0.91014,-0.57603 0.51843,-0.20737 1.07142,-0.20737 0.55299,0 1.07143,0.20737 0.51843,0.19585 0.91013,0.57603 0.3917,0.38019 0.62212,0.93318 0.24193,0.55299 0.24193,1.25576 0,0.70276 -0.24193,1.25575 -0.23042,0.553 -0.62212,0.93318 -0.3917,0.38018 -0.91013,0.57604 -0.51844,0.19585 -1.07143,0.19585 z m 0,-1.08295 q 0.69124,0 1.08295,-0.50691 0.3917,-0.51843 0.3917,-1.37096 0,-0.86406 -0.3917,-1.37097 -0.39171,-0.51843 -1.08295,-0.51843 -0.69124,0 -1.08295,0.51843 -0.3917,0.50691 -0.3917,1.37097 0,0.85253 0.3917,1.37096 0.39171,0.50691 1.08295,0.50691 z"
         style="font-weight:600;font-family:'Source Code Pro';-inkscape-font-specification:'Source Code Pro Semi-Bold';fill:#d9bfa0;stroke:none;stroke-opacity:1"
         id="path80533-4" />
    </g>
    <g
       aria-label="2"
       id="text845-1-9-7"
       style="font-size:50.0944px;line-height:1.25;font-family:'Eras Demi ITC';-inkscape-font-specification:'Eras Demi ITC, Normal';fill:#99221c;stroke:none;stroke-width:0.264583;stroke-opacity:1"
       transform="translate(-153.09328,0.4207253)">
      <path
         d="m 90.986158,157.62853 c 0,0 3.424422,-3.53857 5.185553,-5.47908 1.761131,-1.95681 3.090134,-3.53042 3.987009,-4.72081 0.7338,-0.9621 1.223,-1.6796 1.46761,-2.15249 0.2446,-0.48921 0.40767,-0.89688 0.4892,-1.22301 0.0815,-0.34244 0.1223,-0.68488 0.1223,-1.02732 0,-0.89687 -0.26906,-1.62253 -0.80718,-2.17696 -0.53813,-0.57073 -1.28009,-1.01102 -2.22588,-1.32085 -0.929485,-0.32613 -3.2532,-0.4892 -3.2532,-0.4892 l 2.886298,-5.03879 c 0,0 3.106442,0.15491 4.574052,0.46474 1.46761,0.29352 2.77215,0.80718 3.91362,1.54099 1.15778,0.7175 1.99758,1.5573 2.5194,2.5194 0.53812,0.94579 0.80718,1.94051 0.80718,2.98414 0,0.61965 -0.0652,1.23931 -0.19568,1.85897 -0.11415,0.60335 -0.28537,1.15778 -0.51366,1.66329 -0.44028,1.01102 -1.00286,2.03019 -1.68775,3.05752 -0.66858,1.02733 -1.72852,2.39709 -3.17982,4.1093 -1.43499,1.71221 -3.0086,3.46519 -4.72081,5.25894 -1.695905,1.79374 -2.31679,2.45534 -4.452931,4.28184 h 1.101793 l 5.454618,-0.0245 c 1.81005,0 3.13905,-0.0163 3.98701,-0.0489 0.84794,-0.0489 1.86712,-0.13046 3.05752,-0.2446 -0.0326,0.50552 -0.18742,2.53439 -0.26897,3.34972 -0.0653,0.79903 -0.1468,1.86713 -0.24461,3.20428 -3.70163,-0.0326 -11.545191,-0.0489 -11.545191,-0.0489 z"
         id="path61581-3-0"
         sodipodi:nodetypes="cccccscccccccscccccccccccccc"
         style="stroke:none;stroke-opacity:1" />
    </g>
    <g
       aria-label="K"
       id="text837-6-9-44"
       style="font-size:10.5833px;line-height:1.25;fill:#f2dbae;stroke:none;stroke-width:0.465;stroke-opacity:1"
       transform="translate(-153.09328,0.4207253)">
      <path
         d="m 72.616277,167.85841 c 0.733073,-10.05466 1.607007,-30.26431 1.607007,-30.26431 0,0 3.137623,-0.75562 7.572304,-1.57118 l -0.54728,11.37163 -0.669727,16.04863 -0.07441,4.41523 -3.844726,-0.0496 c -0.463021,0 -4.043164,0.0496 -4.043164,0.0496 z m 9.004101,-17.90898 5.630664,-6.92051 5.13457,-6.52363 c 0.363802,-0.47956 0.890303,-1.12353 1.750199,-2.31415 0,0 2.056144,-0.15904 4.428009,-0.19039 2.14067,-0.0283 4.12224,0.32461 4.12224,0.32461 l -11.143807,13.09399 -1.934766,2.40606 1.562695,2.23242 c 0.231511,0.31419 1.86862,2.46393 4.911329,6.44922 l 7.218159,9.35136 -4.41523,-0.0496 c -0.777213,0 -2.389518,0.0165 -4.836914,0.0496 l -1.5875,-2.48047 c -0.297656,-0.47955 -0.826823,-1.26503 -1.5875,-2.35644 l -6.746875,-9.62422 z"
         style="font-size:50.8px;font-family:'Eras Demi ITC';-inkscape-font-specification:'Eras Demi ITC, Normal';fill:#d9bfa0;stroke:none;stroke-linejoin:round;stroke-opacity:1"
         id="path61578-0-4"
         sodipodi:nodetypes="cccccccccccccscccccccccccc" />
    </g>
    <path
       d="m -40.45673,135.10513 c 0,0 1.80712,0.0422 5.03331,0.20019 3.22621,0.15803 5.46933,0.45876 5.46933,0.45876 0,0 -0.005,0.91724 -0.002,1.14393 0.004,0.30397 0.0128,0.67487 0.0283,1.11267 l -2.8229,-0.15292 -6.2938,-0.19792 -1.43778,-0.0143 c 0.004,-0.86151 0.002,-1.67505 0.0258,-2.5504 z"
       style="font-size:15.8282px;line-height:1.25;font-family:'Eras Demi ITC';-inkscape-font-specification:'Eras Demi ITC, Normal';letter-spacing:1.54325px;fill:#d9bfa0;stroke:none;stroke-width:0.258068;stroke-opacity:1"
       id="path73277-9"
       sodipodi:nodetypes="czcsccccc" />
    <path
       d="m -34.29315,141.67194 q 0.55767,0.10177 0.78205,0.12236 0.22447,0.0283 0.68123,0.0926 0.25942,1.04817 0.36916,1.85072 0.10975,0.80257 0.1184,1.55219 0.01,0.85009 -0.18293,1.56339 -0.18499,0.71323 -0.61314,1.12007 -0.42813,0.40686 -1.23958,0.41622 -0.4405,0.005 -2.25031,-0.0977 -1.80207,-0.10287 -3.72663,-0.10386 0.009,-0.58751 0.003,-1.0821 -0.005,-0.47142 -0.0282,-1.10495 0.93626,0.0897 2.16574,0.13732 l 1.92546,0.0783 q -0.19659,-0.29144 -0.27566,-0.44511 -0.0791,-0.15367 -0.15084,-0.34607 -0.064,-0.19249 -0.20878,-0.67775 -0.13699,-0.48536 -0.24085,-0.77787 -0.10385,-0.29251 -0.23799,-0.53056 -0.12633,-0.23042 -0.29049,-0.39083 -0.15643,-0.16051 -0.33507,-0.23574 -0.17082,-0.0676 -0.37175,-0.0653 -0.32458,0.004 -0.56201,0.19199 -0.22962,0.19588 -0.31905,0.48288 -0.0894,0.28701 -0.0849,0.67342 0.003,0.2473 0.0446,0.51734 0.0418,0.27776 0.20176,0.73967 -0.44238,-0.15721 -1.31814,-0.36352 -0.099,-0.54763 -0.126,-0.87194 -0.0269,-0.32431 -0.0301,-0.60252 -0.0112,-0.97375 0.2443,-1.60275 0.25553,-0.62901 0.82394,-0.93701 0.56848,-0.30026 1.14809,-0.30694 0.33231,-0.004 0.65822,0.10834 0.32592,0.11217 0.59899,0.33316 0.27308,0.221 0.52447,0.57364 0.25914,0.35255 0.49873,1.02222 0.24733,0.66958 0.49965,1.77194 0.0652,0.29294 0.15388,0.60882 0.0964,0.31578 0.18354,0.50028 0.0872,0.19221 0.22022,0.32981 0.14072,0.13749 0.28826,0.19763 0.14763,0.0679 0.3022,0.0661 0.30139,-0.003 0.50773,-0.20681 0.20644,-0.19561 0.28006,-0.51335 0.0814,-0.31011 0.0771,-0.68879 -0.0162,-1.40651 -0.70819,-3.09893 z"
       style="font-size:15.8282px;line-height:1.25;font-family:'Eras Demi ITC';-inkscape-font-specification:'Eras Demi ITC, Normal';letter-spacing:1.54325px;fill:#d9bfa0;stroke:none;stroke-width:0.258068;stroke-opacity:1"
       id="path73279-7" />
    <path
       d="m -40.32181,151.58558 q 1.46995,0.12217 5.10402,0.24255 3.6419,0.12803 5.45037,0.11489 -0.008,0.68797 -0.002,1.1903 0.006,0.50233 0.0279,1.07403 -1.09118,-0.1188 -2.75361,-0.17691 0.15557,0.75565 0.20712,1.20335 0.0593,0.4476 0.0644,0.8881 0.014,1.21332 -0.36288,2.04469 -0.36904,0.839 -1.25198,1.35158 -0.8752,0.51249 -2.13488,0.52703 -0.88101,0.0102 -1.71859,-0.23524 -0.82976,-0.23776 -1.48471,-0.73259 -0.64714,-0.4872 -0.95674,-1.19471 -0.3096,-0.70751 -0.31923,-1.54214 -0.005,-0.40187 0.0686,-0.75052 0.0657,-0.34084 0.20134,-0.63611 0.13581,-0.28755 0.31861,-0.52153 0.18289,-0.22626 0.36658,-0.38296 0.18378,-0.14897 0.51377,-0.35374 l -1.31413,-0.0157 q 0.008,-0.63388 0.004,-0.9971 -0.003,-0.27821 -0.0282,-1.09722 z m 6.24867,2.31622 -1.32221,-0.0465 q -0.42531,-0.0183 -0.82718,-0.0137 -0.95828,0.0111 -1.51248,0.21068 -0.54637,0.20726 -0.84233,0.68216 -0.29595,0.47488 -0.28918,1.06222 0.007,0.64143 0.35288,1.10893 0.3532,0.46739 1.02066,0.70703 0.66756,0.24735 1.40173,0.23888 1.05875,-0.0122 1.69368,-0.58377 0.63492,-0.57155 0.62226,-1.66894 -0.004,-0.35549 -0.0704,-0.74118 -0.0586,-0.38578 -0.22744,-0.95578 z"
       style="font-size:15.8282px;line-height:1.25;font-family:'Eras Demi ITC';-inkscape-font-specification:'Eras Demi ITC, Normal';letter-spacing:1.54325px;fill:#d9bfa0;stroke:none;stroke-width:0.258068;stroke-opacity:1"
       id="path73281-23" />
    <path
       d="m -40.14382,162.85401 1.69822,-0.18964 q -0.30039,0.76092 -0.41797,1.28786 -0.10986,0.52684 -0.10477,0.96734 0.005,0.4405 0.10902,0.74074 0.11167,0.30015 0.31429,0.44467 0.21036,0.14442 0.43446,0.14183 0.10048,-0.001 0.18521,-0.0253 0.0848,-0.0165 0.17695,-0.0716 0.0922,-0.0475 0.16868,-0.11789 0.0843,-0.0628 0.18343,-0.17988 0.10685,-0.11717 0.26665,-0.33543 l 0.32749,-0.42115 q 0.46445,-0.60823 0.73128,-0.92821 0.26684,-0.31997 0.54255,-0.53956 0.28344,-0.21969 0.59123,-0.33918 0.3156,-0.11184 0.64018,-0.11559 0.56415,-0.007 1.07813,0.32764 0.51407,0.34188 0.75349,0.9961 0.24715,0.65412 0.25741,1.54285 0.0117,1.01238 -0.21265,2.33665 l -1.61401,0.1191 q 0.35287,-0.90065 0.34333,-1.72756 -0.005,-0.44823 -0.10179,-0.7872 -0.0888,-0.33132 -0.27601,-0.47601 -0.17944,-0.14479 -0.40356,-0.14221 -0.13138,0.002 -0.26221,0.0494 -0.12312,0.0478 -0.2609,0.16532 -0.13776,0.11753 -0.25972,0.26579 -0.12186,0.15598 -0.47955,0.63932 -0.3577,0.48333 -0.64726,0.84222 -0.28948,0.3666 -0.5882,0.60192 -0.29099,0.23523 -0.6296,0.36281 -0.33861,0.12756 -0.68638,0.13158 -0.5796,0.007 -1.07831,-0.3431 -0.4987,-0.34979 -0.7852,-1.06529 -0.2865,-0.7155 -0.29676,-1.60423 -0.005,-0.46369 0.0643,-1.1292 0.0619,-0.66542 0.23862,-1.42491 z"
       style="font-size:15.8282px;line-height:1.25;font-family:'Eras Demi ITC';-inkscape-font-specification:'Eras Demi ITC, Normal';letter-spacing:1.54325px;fill:#d9bfa0;stroke:none;stroke-width:0.258068;stroke-opacity:1"
       id="path73283-3" />
    <text
       xml:space="preserve"
       style="font-size:10.5833px;line-height:1.25;font-family:'Eras Demi ITC';-inkscape-font-specification:'Eras Demi ITC, Normal';stroke:none;stroke-width:0.264583;stroke-opacity:1"
       x="-40.048393"
       y="179.14821"
       id="text990-36-9"
       inkscape:export-filename="fav_icon.png"
       inkscape:export-xdpi="96"
       inkscape:export-ydpi="96"><tspan
         sodipodi:role="line"
         id="tspan988-35-3"
         x="-40.048393"
         y="179.14821"
         style="fill:#d9bfa0;fill-opacity:1;stroke:none;stroke-width:0.264583;stroke-opacity:1">...</tspan></text>
  </g>
</svg>
